<svg width="26" height="26" viewBox="0 0 26 26" fill="none" xmlns="http://www.w3.org/2000/svg">
<path d="M12.8376 0.65625C5.88062 0.65625 0.243896 6.29297 0.243896 13.25C0.243896 20.207 5.88062 25.8438 12.8376 25.8438C19.7947 25.8438 25.4314 20.207 25.4314 13.25C25.4314 6.29297 19.7947 0.65625 12.8376 0.65625ZM12.8376 5.53125C15.2751 5.53125 17.3064 7.5625 17.3064 10C17.3064 12.4883 15.2751 14.4688 12.8376 14.4688C10.3494 14.4688 8.3689 12.4883 8.3689 10C8.3689 7.5625 10.3494 5.53125 12.8376 5.53125ZM12.8376 23C9.84155 23 7.15015 21.6797 5.3728 19.5469C6.33765 17.7695 8.21655 16.5 10.4001 16.5C10.5017 16.5 10.6033 16.5508 10.7556 16.6016C11.4158 16.8047 12.0759 16.9062 12.8376 16.9062C13.5486 16.9062 14.2595 16.8047 14.8689 16.6016C15.0212 16.5508 15.1228 16.5 15.2751 16.5C17.408 16.5 19.2869 17.7695 20.2517 19.5469C18.4744 21.6797 15.783 23 12.8376 23Z" fill="#F4F6F8"/>
</svg>
