<svg width="12" height="13" viewBox="0 0 12 13" fill="none" xmlns="http://www.w3.org/2000/svg">
<path d="M9.69141 4.60547C9.49609 4.41016 9.20312 4.42969 9.00781 4.60547L6.78125 6.96875V1.34375C6.78125 1.08984 6.56641 0.875 6.3125 0.875H5.6875C5.41406 0.875 5.21875 1.08984 5.21875 1.34375V6.96875L2.97266 4.60547C2.77734 4.42969 2.48438 4.41016 2.28906 4.60547L1.85938 5.03516C1.68359 5.21094 1.68359 5.52344 1.85938 5.69922L5.66797 9.48828C5.84375 9.68359 6.13672 9.68359 6.33203 9.48828L10.1211 5.69922C10.2969 5.52344 10.2969 5.23047 10.1211 5.03516L9.69141 4.60547ZM6.01997 12.848H0.643969V12.08H6.01997V12.848ZM11.352 12.848H5.976V12.08H11.352V12.848Z" fill="#C4C4C4"/>
</svg>
