<svg width="11" height="20" viewBox="0 0 11 20" fill="none" xmlns="http://www.w3.org/2000/svg">
<path d="M1.74167 4.00006L0 3.00006L5.20001 5.05447e-05L10.4 3.00006L8.66682 4.00006L5.20001 2.00006L1.74167 4.00006Z" fill="#00ADB5"/>
<path d="M8.65835 16.0001L10.4 17.0001L5.20001 20.0001L-2.86102e-06 17.0001L1.7332 16.0001L5.20001 18.0001L8.65835 16.0001Z" fill="#00ADB5"/>
<path fill-rule="evenodd" clip-rule="evenodd" d="M5.33337 16.0001L0.137209 13.0001L0.137209 7.00004L5.33337 4.00003L10.5295 7.00004L10.5295 13.0001L5.33337 16.0001ZM1.33335 7.66671L0.666696 7.33337L0.666696 12.6667L1.33335 12.3334L1.33335 7.66671ZM10 12.6667L9.33337 12.3334V7.66671L10 7.33337L10 12.6667ZM8.80004 12.0001L5.33336 14.0001L1.86668 12.0001L1.86668 8.00004L5.33336 6.00003L8.80004 8.00004V12.0001Z" fill="#00ADB5"/>
<circle cx="5.34998" cy="10" r="1" fill="#00ADB5"/>
</svg>
