<svg width="282" height="56" viewBox="0 0 282 56" fill="none" xmlns="http://www.w3.org/2000/svg">
<path d="M67.36 16.32V44H63.72V23.36L54.52 44H51.96L42.72 23.32V44H39.08V16.32H43L53.24 39.2L63.48 16.32H67.36ZM90.4131 37.8H78.2531L76.0131 44H72.1731L82.2531 16.28H86.4531L96.4931 44H92.6531L90.4131 37.8ZM89.3731 34.84L84.3331 20.76L79.2931 34.84H89.3731ZM104.366 40.84H117.966V44H100.046V41.12L113.566 19.28H100.206V16.12H117.886V19L104.366 40.84ZM126.967 19.08V28.4H137.127V31.4H126.967V41H138.327V44H123.327V16.08H138.327V19.08H126.967ZM145.395 44.24C144.701 44.24 144.115 44 143.635 43.52C143.155 43.04 142.915 42.4533 142.915 41.76C142.915 41.0667 143.155 40.48 143.635 40C144.115 39.52 144.701 39.28 145.395 39.28C146.061 39.28 146.621 39.52 147.075 40C147.555 40.48 147.795 41.0667 147.795 41.76C147.795 42.4533 147.555 43.04 147.075 43.52C146.621 44 146.061 44.24 145.395 44.24Z" fill="#8E8E8E"/>
<path d="M181.313 16.32V44H177.673V23.36L168.473 44H165.913L156.673 23.32V44H153.033V16.32H156.953L167.193 39.2L177.433 16.32H181.313ZM191.446 16.12V33.76C191.446 36.24 192.046 38.08 193.246 39.28C194.473 40.48 196.166 41.08 198.326 41.08C200.46 41.08 202.126 40.48 203.326 39.28C204.553 38.08 205.166 36.24 205.166 33.76V16.12H208.806V33.72C208.806 36.04 208.34 38 207.406 39.6C206.473 41.1733 205.206 42.3467 203.606 43.12C202.033 43.8933 200.26 44.28 198.286 44.28C196.313 44.28 194.526 43.8933 192.926 43.12C191.353 42.3467 190.1 41.1733 189.166 39.6C188.26 38 187.806 36.04 187.806 33.72V16.12H191.446ZM224.118 44.28C222.278 44.28 220.625 43.96 219.158 43.32C217.718 42.6533 216.585 41.7467 215.758 40.6C214.932 39.4267 214.505 38.08 214.478 36.56H218.358C218.492 37.8667 219.025 38.9733 219.958 39.88C220.918 40.76 222.305 41.2 224.118 41.2C225.852 41.2 227.212 40.7733 228.198 39.92C229.212 39.04 229.718 37.92 229.718 36.56C229.718 35.4933 229.425 34.6267 228.838 33.96C228.252 33.2933 227.518 32.7867 226.638 32.44C225.758 32.0933 224.572 31.72 223.078 31.32C221.238 30.84 219.758 30.36 218.638 29.88C217.545 29.4 216.598 28.6533 215.798 27.64C215.025 26.6 214.638 25.2133 214.638 23.48C214.638 21.96 215.025 20.6133 215.798 19.44C216.572 18.2667 217.652 17.36 219.038 16.72C220.452 16.08 222.065 15.76 223.878 15.76C226.492 15.76 228.625 16.4133 230.278 17.72C231.958 19.0267 232.905 20.76 233.118 22.92H229.118C228.985 21.8533 228.425 20.92 227.438 20.12C226.452 19.2933 225.145 18.88 223.518 18.88C221.998 18.88 220.758 19.28 219.798 20.08C218.838 20.8533 218.358 21.9467 218.358 23.36C218.358 24.3733 218.638 25.2 219.198 25.84C219.785 26.48 220.492 26.9733 221.318 27.32C222.172 27.64 223.358 28.0133 224.878 28.44C226.718 28.9467 228.198 29.4533 229.318 29.96C230.438 30.44 231.398 31.2 232.198 32.24C232.998 33.2533 233.398 34.64 233.398 36.4C233.398 37.76 233.038 39.04 232.318 40.24C231.598 41.44 230.532 42.4133 229.118 43.16C227.705 43.9067 226.038 44.28 224.118 44.28ZM242.795 16.12V44H239.155V16.12H242.795ZM248.039 30.04C248.039 27.32 248.652 24.88 249.879 22.72C251.105 20.5333 252.772 18.8267 254.879 17.6C257.012 16.3733 259.372 15.76 261.959 15.76C264.999 15.76 267.652 16.4933 269.919 17.96C272.185 19.4267 273.839 21.5067 274.879 24.2H270.519C269.745 22.52 268.625 21.2267 267.159 20.32C265.719 19.4133 263.985 18.96 261.959 18.96C260.012 18.96 258.265 19.4133 256.719 20.32C255.172 21.2267 253.959 22.52 253.079 24.2C252.199 25.8533 251.759 27.8 251.759 30.04C251.759 32.2533 252.199 34.2 253.079 35.88C253.959 37.5333 255.172 38.8133 256.719 39.72C258.265 40.6267 260.012 41.08 261.959 41.08C263.985 41.08 265.719 40.64 267.159 39.76C268.625 38.8533 269.745 37.56 270.519 35.88H274.879C273.839 38.5467 272.185 40.6133 269.919 42.08C267.652 43.52 264.999 44.24 261.959 44.24C259.372 44.24 257.012 43.64 254.879 42.44C252.772 41.2133 251.105 39.52 249.879 37.36C248.652 35.2 248.039 32.76 248.039 30.04Z" fill="black"/>
<rect x="21.5632" y="19.5897" width="3.82906" height="9.2583" rx="1.91453" transform="rotate(45 21.5632 19.5897)" fill="#00ADB5"/>
<path fill-rule="evenodd" clip-rule="evenodd" d="M28 30C28 37.732 21.732 44 14 44C10.8499 44 7.94286 42.9596 5.60364 41.2038L7.75251 39.0549C9.52697 40.2815 11.6796 41 14 41C20.0751 41 25 36.0751 25 30C25 23.9249 20.0751 19 14 19C7.92487 19 3 23.9249 3 30C3 32.3718 3.75067 34.5683 5.0274 36.3649L2.88238 38.5099C1.07444 36.1515 0 33.2012 0 30C0 22.268 6.26801 16 14 16C21.732 16 28 22.268 28 30Z" fill="#00ADB5"/>
<path fill-rule="evenodd" clip-rule="evenodd" d="M14.0085 39.0171C18.9838 39.0171 23.0171 34.9838 23.0171 30.0085C23.0171 25.0333 18.9838 21 14.0085 21C9.03326 21 5 25.0333 5 30.0085C5 34.9838 9.03326 39.0171 14.0085 39.0171ZM14.0087 36.5532C17.6232 36.5532 20.5534 33.6231 20.5534 30.0086C20.5534 26.394 17.6232 23.4639 14.0087 23.4639C10.3942 23.4639 7.46406 26.394 7.46406 30.0086C7.46406 33.6231 10.3942 36.5532 14.0087 36.5532Z" fill="#00ADB5"/>
</svg>
