<svg width="107" height="20" viewBox="0 0 107 20" fill="none" xmlns="http://www.w3.org/2000/svg">
<path d="M16.5674 4.49365H18.9478L21.0059 9.31299L21.438 10.5068H21.5771L22.002 9.31299L24.0601 4.49365H26.4404V16H24.646V9.66455L24.8364 6.73486H24.7559L21.9141 13.2095H21.0938L18.1714 6.73486H18.0908L18.3618 9.66455V16H16.5674V4.49365ZM31.5196 4.49365H33.9439L37.2984 16H35.3941L34.6324 13.1289H30.941L30.2232 16H28.3263L31.5196 4.49365ZM34.2516 11.7153L32.8453 6.4126H32.6329L31.2999 11.7153H34.2516ZM43.0734 5.97314H38.8181V4.49365H45.6662L40.8981 14.5205H45.4904V16H38.2614L43.0734 5.97314ZM47.8816 4.49365H53.9314V5.94385H49.6761V9.12256H52.9207V10.5654H49.6761V14.5205H54.2244V16H47.8816V4.49365ZM56.1542 14.8135C56.1542 14.6182 56.1859 14.4399 56.2494 14.2788C56.3178 14.1128 56.413 13.9712 56.5351 13.854C56.6571 13.7368 56.8036 13.6465 56.9745 13.583C57.1503 13.5195 57.3432 13.4878 57.5531 13.4878C57.7729 13.4878 57.9706 13.5195 58.1464 13.583C58.3222 13.6465 58.4711 13.7368 58.5932 13.854C58.7201 13.9712 58.8153 14.1128 58.8788 14.2788C58.9472 14.4399 58.9813 14.6182 58.9813 14.8135C58.9813 15.0137 58.9472 15.1943 58.8788 15.3555C58.8153 15.5166 58.7201 15.6558 58.5932 15.7729C58.4711 15.8901 58.3222 15.9805 58.1464 16.0439C57.9706 16.1074 57.7729 16.1392 57.5531 16.1392C57.3432 16.1392 57.1503 16.1074 56.9745 16.0439C56.8036 15.9805 56.6571 15.8901 56.5351 15.7729C56.413 15.6558 56.3178 15.5166 56.2494 15.3555C56.1859 15.1943 56.1542 15.0137 56.1542 14.8135Z" fill="#8E8E8E"/>
<path d="M61.9365 4.49365H64.3169L66.375 9.31299L66.8071 10.5068H66.9463L67.3711 9.31299L69.4292 4.49365H71.8096V16H70.0151V9.66455L70.2056 6.73486H70.125L67.2832 13.2095H66.4629L63.5405 6.73486H63.46L63.731 9.66455V16H61.9365V4.49365ZM75.0357 4.49365H76.8521V12.3159C76.8521 12.7212 76.8961 13.0703 76.984 13.3633C77.0768 13.6562 77.2062 13.8979 77.3722 14.0884C77.5431 14.2788 77.7506 14.4204 77.9947 14.5132C78.2389 14.6011 78.5147 14.645 78.8224 14.645C79.13 14.645 79.4059 14.6011 79.65 14.5132C79.8941 14.4204 80.1017 14.2788 80.2726 14.0884C80.4435 13.8979 80.5729 13.6562 80.6607 13.3633C80.7535 13.0703 80.7999 12.7212 80.7999 12.3159V4.49365H82.609V12.1328C82.609 12.7725 82.5162 13.3413 82.3307 13.8394C82.15 14.3374 81.8937 14.7598 81.5616 15.1064C81.2296 15.4482 80.8292 15.7095 80.3605 15.8901C79.8966 16.0708 79.3839 16.1611 78.8224 16.1611C78.256 16.1611 77.7408 16.0708 77.277 15.8901C76.8131 15.7095 76.4151 15.4482 76.0831 15.1064C75.7511 14.7598 75.4923 14.3374 75.3067 13.8394C75.1261 13.3413 75.0357 12.7725 75.0357 12.1328V4.49365ZM85.2932 13.8467C85.718 14.1396 86.1257 14.3447 86.5163 14.4619C86.9118 14.5791 87.2976 14.6377 87.6735 14.6377C88.0056 14.6377 88.2863 14.5986 88.5158 14.5205C88.7453 14.4375 88.9284 14.3325 89.0651 14.2056C89.2067 14.0737 89.3068 13.9272 89.3654 13.7661C89.4289 13.6001 89.4606 13.4341 89.4606 13.2681C89.4606 12.9995 89.3996 12.7554 89.2775 12.5356C89.1555 12.3159 88.9943 12.106 88.7941 11.9058C88.5988 11.7056 88.3742 11.5127 88.1203 11.3271C87.8713 11.1416 87.6149 10.9487 87.3513 10.7485C87.0876 10.5483 86.8288 10.3384 86.5749 10.1187C86.321 9.89404 86.0939 9.64746 85.8938 9.37891C85.6984 9.10547 85.5397 8.80518 85.4177 8.47803C85.3005 8.146 85.2419 7.7749 85.2419 7.36475C85.2419 6.896 85.3225 6.47607 85.4836 6.10498C85.6496 5.729 85.8767 5.41162 86.1647 5.15283C86.4528 4.89404 86.7946 4.69629 87.1901 4.55957C87.5856 4.41797 88.0153 4.34717 88.4792 4.34717C88.8503 4.34717 89.2214 4.38867 89.5925 4.47168C89.9636 4.5498 90.2858 4.65723 90.5593 4.79395L90.552 6.49316C90.2004 6.26367 89.8684 6.1001 89.5559 6.00244C89.2434 5.90479 88.9333 5.85596 88.6257 5.85596C88.3522 5.85596 88.113 5.89258 87.9079 5.96582C87.7077 6.03906 87.5393 6.13916 87.4025 6.26611C87.2707 6.39307 87.1706 6.54199 87.1022 6.71289C87.0388 6.87891 87.007 7.05957 87.007 7.25488C87.007 7.53809 87.0656 7.79443 87.1828 8.02393C87.3049 8.24854 87.4636 8.46094 87.6589 8.66113C87.8591 8.86133 88.0861 9.0542 88.34 9.23975C88.5939 9.42041 88.8503 9.6084 89.1091 9.80371C89.3728 9.99902 89.6315 10.2041 89.8855 10.4189C90.1394 10.6338 90.364 10.873 90.5593 11.1367C90.7595 11.3955 90.9182 11.686 91.0354 12.0083C91.1574 12.3306 91.2185 12.6943 91.2185 13.0996C91.2185 13.5537 91.1379 13.9688 90.9768 14.3447C90.8205 14.7207 90.5935 15.043 90.2956 15.3115C90.0026 15.5801 89.6438 15.79 89.2189 15.9414C88.799 16.0879 88.3278 16.1611 87.8054 16.1611C87.5905 16.1611 87.3684 16.1465 87.1389 16.1172C86.9094 16.0928 86.6823 16.0562 86.4577 16.0073C86.238 15.9585 86.0256 15.8999 85.8205 15.8315C85.6203 15.7583 85.4421 15.6753 85.2858 15.5825L85.2932 13.8467ZM93.639 4.49365H95.4334V16H93.639V4.49365ZM102.578 16.1611C101.885 16.1611 101.25 16.0415 100.674 15.8022C100.098 15.563 99.602 15.1992 99.1869 14.7109C98.7768 14.2227 98.4569 13.605 98.2274 12.8579C97.9979 12.1108 97.8832 11.2295 97.8832 10.2139C97.8832 9.20312 97.9906 8.3291 98.2055 7.5918C98.4203 6.84961 98.723 6.23682 99.1137 5.75342C99.5043 5.27002 99.973 4.91357 100.52 4.68408C101.067 4.44971 101.675 4.33252 102.344 4.33252C102.588 4.33252 102.829 4.34717 103.069 4.37646C103.308 4.40088 103.533 4.4375 103.743 4.48633C103.957 4.53027 104.15 4.58643 104.321 4.65479C104.497 4.71826 104.641 4.78906 104.753 4.86719V6.6543C104.446 6.37598 104.101 6.17334 103.721 6.04639C103.345 5.91455 102.952 5.84863 102.541 5.84863C102.121 5.84863 101.736 5.93164 101.384 6.09766C101.037 6.25879 100.74 6.51514 100.491 6.8667C100.242 7.21826 100.049 7.66992 99.912 8.22168C99.7753 8.76855 99.7069 9.42773 99.7069 10.1992C99.7069 10.9756 99.7777 11.6445 99.9193 12.2061C100.061 12.7676 100.266 13.229 100.535 13.5903C100.803 13.9517 101.128 14.2178 101.509 14.3887C101.89 14.5596 102.319 14.645 102.798 14.645C103.149 14.645 103.501 14.5962 103.852 14.4985C104.204 14.396 104.519 14.2227 104.797 13.9785V15.6191C104.558 15.7754 104.25 15.9048 103.874 16.0073C103.498 16.1099 103.066 16.1611 102.578 16.1611Z" fill="black"/>
<path d="M1.74167 4.00006L0 3.00006L5.20001 5.05447e-05L10.4 3.00006L8.66682 4.00006L5.20001 2.00006L1.74167 4.00006Z" fill="#00ADB5"/>
<path d="M8.65848 16.0001L10.4001 17.0001L5.20013 20.0001L0.000119209 17.0001L1.73333 16.0001L5.20013 18.0001L8.65848 16.0001Z" fill="#00ADB5"/>
<path fill-rule="evenodd" clip-rule="evenodd" d="M5.33337 16.0001L0.137209 13.0001L0.137209 7.00004L5.33337 4.00003L10.5295 7.00004L10.5295 13.0001L5.33337 16.0001ZM1.33335 7.66671L0.666696 7.33337L0.666696 12.6667L1.33335 12.3334L1.33335 7.66671ZM10 12.6667L9.33337 12.3334V7.66671L10 7.33337L10 12.6667ZM8.80004 12.0001L5.33336 14.0001L1.86668 12.0001L1.86668 8.00004L5.33336 6.00003L8.80004 8.00004V12.0001Z" fill="#00ADB5"/>
<circle cx="5.3501" cy="10" r="1" fill="#00ADB5"/>
</svg>
