<svg width="869" height="131" viewBox="0 0 869 131" fill="none" xmlns="http://www.w3.org/2000/svg">
<path d="M251.799 102.733C247.607 102.733 245.511 100.043 245.511 94.6637V43.9405H244.778L223.189 98.8557C222.141 101.441 220.674 102.733 218.787 102.733C216.831 102.733 215.329 101.441 214.281 98.8557L194.159 43.9405H193.426V96.8645C193.426 98.8907 192.972 100.393 192.063 101.371C191.225 102.279 190.247 102.733 189.129 102.733C188.011 102.733 187.068 102.349 186.299 101.581C185.531 100.812 185.147 99.6243 185.147 98.0173V33.9845C185.147 32.2379 185.81 30.8755 187.138 29.8973C188.465 28.9192 190.037 28.4301 191.854 28.4301C193.391 28.4301 194.893 28.8493 196.36 29.6877C197.897 30.4563 199.015 31.7139 199.714 33.4605L219.835 89.1093H220.359L242.263 33.9845C242.961 32.0283 244.079 30.6309 245.616 29.7925C247.223 28.8843 248.935 28.4301 250.751 28.4301C252.568 28.4301 253.895 28.8843 254.734 29.7925C255.642 30.7008 256.096 32.0981 256.096 33.9845V97.4933C256.096 99.4496 255.782 100.812 255.153 101.581C254.524 102.349 253.406 102.733 251.799 102.733ZM277.366 97.1789C276.527 99.4147 275.549 100.917 274.431 101.685C273.383 102.384 272.231 102.733 270.973 102.733C269.995 102.733 269.261 102.489 268.772 102C268.353 101.441 268.143 100.742 268.143 99.9037C268.143 99.0653 268.318 98.192 268.667 97.2837L293.295 30.9453C293.575 30.1768 294.239 29.5829 295.287 29.1637C296.404 28.6747 297.662 28.4301 299.059 28.4301C300.596 28.4301 301.959 28.6747 303.147 29.1637C304.404 29.6528 305.173 30.3515 305.452 31.2597L329.451 97.7029C329.591 98.4016 329.661 98.9256 329.661 99.2749C329.661 100.253 329.312 101.091 328.613 101.79C327.984 102.419 326.971 102.733 325.574 102.733C324.107 102.733 322.604 102.349 321.067 101.581C319.6 100.812 318.482 99.3448 317.714 97.1789L312.159 82.8213H282.711L277.366 97.1789ZM297.907 40.7965H297.278L284.387 77.3717H310.587L297.907 40.7965ZM340.161 102.733C338.623 102.733 337.436 102.244 336.597 101.266C335.829 100.288 335.445 99.0653 335.445 97.5981C335.445 96.9693 335.514 96.3056 335.654 95.6069C335.794 94.8384 336.003 94.2445 336.283 93.8253L376.421 33.9845H348.335V39.8533C348.335 42.2987 347.811 44.0453 346.763 45.0933C345.785 46.1413 344.283 46.6653 342.257 46.6653C340.719 46.6653 339.567 46.2461 338.798 45.4077C338.099 44.5693 337.75 43.2419 337.75 41.4253V32.3077C337.75 30.8405 338.239 29.8275 339.217 29.2685C340.265 28.7096 341.872 28.4301 344.038 28.4301H383.548C385.085 28.4301 386.238 28.9541 387.006 30.0021C387.845 31.0501 388.264 32.3077 388.264 33.7749C388.264 34.4037 388.194 35.0675 388.054 35.7661C387.914 36.4648 387.705 36.9888 387.425 37.3381L346.344 97.1789H378.517V91.3101C378.517 88.8648 379.006 87.1181 379.985 86.0701C381.033 85.0221 382.57 84.4981 384.596 84.4981C386.133 84.4981 387.251 84.9173 387.949 85.7557C388.718 86.5941 389.102 87.9216 389.102 89.7381V98.8557C389.102 100.323 388.578 101.336 387.53 101.895C386.552 102.454 384.98 102.733 382.814 102.733H340.161ZM445.987 46.6653C443.961 46.6653 442.424 46.1413 441.376 45.0933C440.398 44.0453 439.909 42.2987 439.909 39.8533V33.9845H415.071V61.4421H437.079C437.988 61.4421 438.686 61.7565 439.175 62.3853C439.734 62.9443 440.014 63.608 440.014 64.3765C440.014 65.0752 439.699 65.7389 439.07 66.3677C438.442 66.9267 437.778 67.2061 437.079 67.2061H415.071V97.1789H441.481V91.3101C441.481 88.8648 441.97 87.1181 442.948 86.0701C443.996 85.0221 445.533 84.4981 447.559 84.4981C449.096 84.4981 450.214 84.9173 450.913 85.7557C451.681 86.5941 452.066 87.9216 452.066 89.7381V98.8557C452.066 100.323 451.542 101.336 450.494 101.895C449.516 102.454 447.944 102.733 445.778 102.733H408.574C406.967 102.733 405.744 102.314 404.906 101.476C404.137 100.637 403.753 99.3099 403.753 97.4933V33.6701C403.753 31.8536 404.137 30.5261 404.906 29.6877C405.744 28.8493 406.967 28.4301 408.574 28.4301H444.206C446.372 28.4301 447.944 28.7096 448.922 29.2685C449.97 29.8275 450.494 30.8405 450.494 32.3077V41.4253C450.494 43.2419 450.109 44.5693 449.341 45.4077C448.642 46.2461 447.524 46.6653 445.987 46.6653ZM462.502 94.6637C462.502 92.2184 463.271 90.2272 464.808 88.6901C466.345 87.1531 468.231 86.3845 470.467 86.3845C472.703 86.3845 474.589 87.188 476.126 88.7949C477.663 90.332 478.432 92.2883 478.432 94.6637C478.432 96.9693 477.663 98.8907 476.126 100.428C474.589 101.965 472.703 102.733 470.467 102.733C468.231 102.733 466.345 101.965 464.808 100.428C463.271 98.8907 462.502 96.9693 462.502 94.6637Z" fill="#8E8E8E"/>
<path d="M561.901 102.733C557.709 102.733 555.613 100.043 555.613 94.6637V43.9405H554.879L533.291 98.8557C532.243 101.441 530.775 102.733 528.889 102.733C526.933 102.733 525.431 101.441 524.383 98.8557L504.261 43.9405H503.527V96.8645C503.527 98.8907 503.073 100.393 502.165 101.371C501.327 102.279 500.348 102.733 499.231 102.733C498.113 102.733 497.17 102.349 496.401 101.581C495.632 100.812 495.248 99.6243 495.248 98.0173V33.9845C495.248 32.2379 495.912 30.8755 497.239 29.8973C498.567 28.9192 500.139 28.4301 501.955 28.4301C503.492 28.4301 504.995 28.8493 506.462 29.6877C507.999 30.4563 509.117 31.7139 509.815 33.4605L529.937 89.1093H530.461L552.364 33.9845C553.063 32.0283 554.181 30.6309 555.718 29.7925C557.325 28.8843 559.036 28.4301 560.853 28.4301C562.67 28.4301 563.997 28.8843 564.835 29.7925C565.744 30.7008 566.198 32.0981 566.198 33.9845V97.4933C566.198 99.4496 565.883 100.812 565.255 101.581C564.626 102.349 563.508 102.733 561.901 102.733ZM597.738 79.7821C597.738 85.4413 599.38 89.8779 602.663 93.0917C605.947 96.3056 610.488 97.9125 616.287 97.9125C621.667 97.9125 625.929 96.1659 629.073 92.6725C632.287 89.1792 633.894 84.7427 633.894 79.3629V34.2989C633.894 32.2728 634.313 30.8056 635.151 29.8973C636.06 28.9192 637.073 28.4301 638.19 28.4301C639.308 28.4301 640.252 28.8144 641.02 29.5829C641.789 30.3515 642.173 31.5392 642.173 33.1461V76.1141C642.173 80.3061 641.439 84.5331 639.972 88.7949C638.505 92.9869 635.675 96.62 631.483 99.6941C627.361 102.768 621.597 104.305 614.191 104.305C603.152 104.305 595.746 101.476 591.974 95.8165C588.271 90.1573 586.419 83.6947 586.419 76.4285V33.6701C586.419 31.7837 586.769 30.4563 587.467 29.6877C588.166 28.8493 589.354 28.4301 591.03 28.4301C593.196 28.4301 594.838 29.1288 595.956 30.5261C597.144 31.8536 597.738 33.8448 597.738 36.4997V79.7821ZM702.409 47.5037C700.383 47.5037 698.846 47.0147 697.798 46.0365C696.82 44.9885 696.331 43.3117 696.331 41.0061V35.6613C696.051 35.5915 695.457 35.4168 694.549 35.1373C691.335 34.2291 687.807 33.7749 683.964 33.7749C680.89 33.7749 678.305 34.4387 676.209 35.7661C674.113 37.0237 672.541 38.6656 671.493 40.6917C670.515 42.648 670.026 44.6741 670.026 46.7701C670.026 49.1456 670.445 51.1019 671.284 52.6389C672.192 54.176 673.624 55.5035 675.58 56.6213C677.537 57.7392 680.401 58.9968 684.174 60.3941C691.65 63.0491 697.134 65.2149 700.628 66.8917C704.121 68.5685 706.846 70.6296 708.802 73.0749C710.758 75.4504 711.736 78.5595 711.736 82.4021C711.736 86.3147 710.584 89.808 708.278 92.8821C706.042 95.9563 702.689 98.3667 698.217 100.113C693.816 101.86 688.541 102.733 682.392 102.733C679.248 102.733 675.79 102.419 672.017 101.79C668.314 101.091 665.205 100.253 662.69 99.2749C661.083 98.5763 660 97.9475 659.441 97.3885C658.882 96.7597 658.603 95.7117 658.603 94.2445V87.9565C658.603 84.6029 660.105 82.9261 663.109 82.9261C665.135 82.9261 666.637 83.4501 667.616 84.4981C668.664 85.4763 669.188 87.1531 669.188 89.5285V95.1877C673.589 96.6549 677.851 97.3885 681.973 97.3885C685.746 97.3885 688.995 96.7248 691.72 95.3973C694.444 94.0699 696.505 92.3581 697.903 90.2621C699.3 88.1661 699.999 85.9304 699.999 83.5549C699.999 81.2493 699.37 79.2931 698.112 77.6861C696.925 76.0792 695.108 74.6469 692.663 73.3893C690.217 72.1317 686.794 70.6995 682.392 69.0925C676.454 66.8568 671.877 64.9704 668.664 63.4333C665.52 61.8264 663.004 59.7653 661.118 57.2501C659.232 54.6651 658.288 51.3813 658.288 47.3989C658.288 41.6699 660.489 37.0936 664.891 33.6701C669.292 30.1768 675.406 28.4301 683.231 28.4301C686.864 28.4301 690.182 28.7096 693.187 29.2685C696.191 29.7576 699.335 30.4912 702.619 31.4693C704.296 32.0283 705.413 32.6221 705.972 33.2509C706.601 33.8797 706.916 34.9277 706.916 36.3949V42.4733C706.916 45.8269 705.413 47.5037 702.409 47.5037ZM723.25 102.733C721.992 102.733 721.154 102.524 720.734 102.105C720.315 101.615 720.106 100.987 720.106 100.218C720.106 99.3099 720.385 98.5763 720.944 98.0173C721.573 97.4584 722.691 97.1789 724.298 97.1789H733.73V33.9845H724.298C722.691 33.9845 721.573 33.7051 720.944 33.1461C720.385 32.5872 720.106 31.8536 720.106 30.9453C720.106 30.1768 720.315 29.5829 720.734 29.1637C721.154 28.6747 721.992 28.4301 723.25 28.4301H755.528C756.786 28.4301 757.624 28.6747 758.043 29.1637C758.462 29.5829 758.672 30.1768 758.672 30.9453C758.672 31.8536 758.358 32.5872 757.729 33.1461C757.17 33.7051 756.087 33.9845 754.48 33.9845H745.048V97.1789H754.48C756.087 97.1789 757.17 97.4584 757.729 98.0173C758.358 98.5763 758.672 99.3099 758.672 100.218C758.672 100.987 758.462 101.615 758.043 102.105C757.624 102.524 756.786 102.733 755.528 102.733H723.25ZM813.504 47.2941C811.478 47.2941 809.941 46.7701 808.893 45.7221C807.914 44.6741 807.425 42.9275 807.425 40.4821V34.6133C804.84 34.0544 802.29 33.7749 799.775 33.7749C793.138 33.7749 787.863 36.5696 783.95 42.1589C780.107 47.6784 778.186 55.7829 778.186 66.4725C778.186 77.8608 780.073 85.8605 783.845 90.4717C787.618 95.0131 793.173 97.2837 800.509 97.2837C804.84 97.2837 809.417 96.2707 814.237 94.2445L816.229 93.4061C816.648 93.2664 816.927 93.1965 817.067 93.1965C817.766 93.1965 818.359 93.5459 818.849 94.2445C819.338 94.8733 819.582 95.572 819.582 96.3405C819.582 97.3187 819.128 98.0173 818.22 98.4365L816.438 99.1701C813.574 100.358 810.674 101.266 807.74 101.895C804.875 102.454 801.487 102.733 797.574 102.733C786.954 102.733 779.094 99.5893 773.994 93.3013C768.894 86.9435 766.344 77.9307 766.344 66.2629C766.344 57.8091 767.706 50.7525 770.431 45.0933C773.226 39.4341 777.033 35.2421 781.854 32.5173C786.675 29.7925 792.194 28.4301 798.413 28.4301C804.002 28.4301 809.102 29.1637 813.713 30.6309C815.39 31.1899 816.508 31.8187 817.067 32.5173C817.696 33.1461 818.01 34.2291 818.01 35.7661V42.0541C818.01 43.8707 817.626 45.1981 816.857 46.0365C816.159 46.8749 815.041 47.2941 813.504 47.2941Z" fill="black"/>
<rect x="100.884" y="16.7934" width="17.9145" height="43.3156" rx="8.95727" transform="rotate(45 100.884 16.7934)" fill="#00ADB5"/>
<path fill-rule="evenodd" clip-rule="evenodd" d="M131 65.5C131 101.675 101.675 131 65.5 131C50.7624 131 37.1617 126.133 26.2176 117.918L36.2714 107.864C44.5731 113.602 54.6436 116.964 65.4992 116.964C93.9222 116.964 116.964 93.9222 116.964 65.4992C116.964 37.0763 93.9222 14.035 65.4992 14.035C37.0763 14.035 14.035 37.0763 14.035 65.4992C14.035 76.5967 17.5474 86.8737 23.5213 95.2793L13.4858 105.315C5.02701 94.2808 0 80.4774 0 65.5C0 29.3253 29.3253 0 65.5 0C101.675 0 131 29.3253 131 65.5Z" fill="#00ADB5"/>
<path fill-rule="evenodd" clip-rule="evenodd" d="M65.5391 107.687C88.8163 107.687 107.686 88.8168 107.686 65.5396C107.686 42.2624 88.8163 23.3925 65.5391 23.3925C42.2619 23.3925 23.392 42.2624 23.392 65.5396C23.392 88.8168 42.2619 107.687 65.5391 107.687ZM65.5424 96.1594C82.4532 96.1594 96.1621 82.4505 96.1621 65.5397C96.1621 48.6289 82.4532 34.92 65.5424 34.92C48.6316 34.92 34.9227 48.6289 34.9227 65.5397C34.9227 82.4505 48.6316 96.1594 65.5424 96.1594Z" fill="#00ADB5"/>
</svg>
