<svg width="42" height="42" viewBox="0 0 42 42" fill="none" xmlns="http://www.w3.org/2000/svg">
<rect x="32.3447" y="5.38416" width="5.74359" height="13.8875" rx="2.8718" transform="rotate(45 32.3447 5.38416)" fill="#00ADB5"/>
<path fill-rule="evenodd" clip-rule="evenodd" d="M42 21C42 32.598 32.598 42 21 42C16.2749 42 11.9144 40.4395 8.40553 37.8057L11.6289 34.5823C14.2905 36.4221 17.5193 37.4998 20.9998 37.4998C30.1125 37.4998 37.4998 30.1125 37.4998 20.9998C37.4998 11.8871 30.1125 4.49976 20.9998 4.49976C11.8871 4.49976 4.49976 11.8871 4.49976 20.9998C4.49976 24.5577 5.62587 27.8526 7.54111 30.5474L4.32362 33.7649C1.61168 30.2273 0 25.8019 0 21C0 9.40202 9.40202 0 21 0C32.598 0 42 9.40202 42 21Z" fill="#00ADB5"/>
<path fill-rule="evenodd" clip-rule="evenodd" d="M21.0127 34.5255C28.4756 34.5255 34.5255 28.4756 34.5255 21.0127C34.5255 13.5498 28.4756 7.49988 21.0127 7.49988C13.5498 7.49988 7.49988 13.5498 7.49988 21.0127C7.49988 28.4756 13.5498 34.5255 21.0127 34.5255ZM21.0133 30.8294C26.4351 30.8294 30.8303 26.4342 30.8303 21.0124C30.8303 15.5907 26.4351 11.1954 21.0133 11.1954C15.5915 11.1954 11.1963 15.5907 11.1963 21.0124C11.1963 26.4342 15.5915 30.8294 21.0133 30.8294Z" fill="#00ADB5"/>
</svg>
