<svg width="24" height="24" viewBox="0 0 24 24" fill="none" xmlns="http://www.w3.org/2000/svg">
<path d="M16.8179 11.0002C16.8179 11.4144 16.4821 11.7502 16.0679 11.7502H8.06787C7.65366 11.7502 7.31787 11.4144 7.31787 11.0002C7.31787 10.586 7.65366 10.2502 8.06787 10.2502H16.0679C16.4821 10.2502 16.8179 10.586 16.8179 11.0002Z" fill="black"/>
<path fill-rule="evenodd" clip-rule="evenodd" d="M4.45345 8.14688L5.64218 4.89929C5.94176 4.08084 6.66835 3.49437 7.53158 3.37424C10.5413 2.95541 13.5945 2.95541 16.6042 3.37424C17.4675 3.49437 18.1941 4.08085 18.4936 4.8993L19.6824 8.14719C19.9048 8.49407 20.0579 8.8906 20.1222 9.31808L20.2241 9.99592C20.6239 12.6546 20.5866 15.3606 20.1135 18.0072C19.9038 19.1805 18.9402 20.0718 17.7541 20.1895L16.5237 20.3116C13.5604 20.6057 10.5753 20.6057 7.61204 20.3116L6.38158 20.1895C5.1955 20.0718 4.23194 19.1805 4.02221 18.0072C3.54914 15.3606 3.51176 12.6546 3.91156 9.99592L4.01349 9.31808C4.07779 8.89048 4.23101 8.49383 4.45345 8.14688ZM7.73833 4.85993C10.6109 4.46018 13.5249 4.46018 16.3975 4.85993C16.7116 4.90364 16.976 5.11706 17.085 5.41489L17.5912 6.79787C17.5459 6.79127 17.5002 6.78567 17.4542 6.78111L16.476 6.68402C13.5444 6.39305 10.5912 6.39305 7.65966 6.68402L6.68147 6.78111C6.63553 6.78567 6.58989 6.79126 6.54457 6.79785L7.05078 5.41488C7.1598 5.11706 7.4242 4.90364 7.73833 4.85993ZM5.75353 8.90116L5.77219 8.90799L5.79534 8.84474C6.04108 8.52889 6.4102 8.3154 6.82962 8.27377L7.80781 8.17668C10.6409 7.89549 13.4948 7.89549 16.3279 8.17668L17.3061 8.27377C17.7256 8.31541 18.0948 8.52898 18.3405 8.84494L18.3636 8.90799L18.3822 8.90118C18.5133 9.08708 18.6033 9.30463 18.6389 9.54114L18.7408 10.219C19.1163 12.716 19.0812 15.2576 18.6369 17.7433C18.5452 18.256 18.1242 18.6454 17.606 18.6968L16.3755 18.8189C13.5108 19.1033 10.6249 19.1033 7.76019 18.8189L6.52973 18.6968C6.01147 18.6454 5.59045 18.2559 5.49881 17.7433C5.05449 15.2576 5.01939 12.716 5.39488 10.219L5.49681 9.54114C5.53238 9.30462 5.6224 9.08706 5.75353 8.90116Z" fill="black"/>
</svg>
