<svg width="28" height="28" viewBox="0 0 28 28" fill="none" xmlns="http://www.w3.org/2000/svg">
<path d="M13.9998 4.66683C11.104 4.66683 8.69901 6.77812 8.24408 9.54534L8.09788 10.4347L7.20046 10.5178C5.12534 10.71 3.49984 12.4576 3.49984 14.5835C3.49984 16.3596 4.63443 17.8737 6.22196 18.4348L7.32194 18.8236L6.54436 21.0235L5.44438 20.6347C2.95374 19.7544 1.1665 17.3792 1.1665 14.5835C1.1665 11.5414 3.28272 8.99471 6.12394 8.33369C7.07357 4.87469 10.239 2.3335 13.9998 2.3335C18.5102 2.3335 22.1665 5.98984 22.1665 10.5002C22.1665 10.5108 22.1665 10.5215 22.1664 10.5322C24.7914 10.8223 26.8332 13.0478 26.8332 15.7502C26.8332 18.396 24.877 20.583 22.3317 20.9471L21.1768 21.1123L20.8464 18.8024L22.0013 18.6372C23.4137 18.4352 24.4998 17.2185 24.4998 15.7502C24.4998 14.1393 23.194 12.8335 21.5832 12.8335C21.4138 12.8335 21.2488 12.8478 21.0888 12.875L19.4564 13.1529L19.7441 11.5222C19.8026 11.1911 19.8332 10.8497 19.8332 10.5002C19.8332 7.2785 17.2215 4.66683 13.9998 4.66683Z" fill="#00ADB5"/>
<path d="M13.9998 11.1836L19.1498 16.3335L17.4998 17.9834L15.1665 15.6501V25.6668H12.8332V15.6501L10.4998 17.9834L8.84992 16.3335L13.9998 11.1836Z" fill="#00ADB5"/>
</svg>
