<svg width="24" height="24" viewBox="0 0 24 24" fill="none" xmlns="http://www.w3.org/2000/svg">
<g clip-path="url(#clip0_3027_290)">
<path fill-rule="evenodd" clip-rule="evenodd" d="M10.9997 20.5224V13.8557L1.99968 20.5224L1.99968 3.47766L10.9997 10.1443V3.47766L22.5049 12L10.9997 20.5224ZM10.4945 12L3.99968 7.18907V16.811L10.4945 12ZM19.4945 12L12.9997 7.18907L12.9997 16.811L19.4945 12Z" fill="#C4C4C4"/>
<path d="M3 17.625V6.75V6L11.8027 12.1233L12 6L21 12L12 18V12L11.8027 12.1233L3 17.625Z" fill="#C4C4C4"/>
<path d="M11.8027 12.1233L3 17.625V6.75V6L11.8027 12.1233ZM11.8027 12.1233L12 12V18L21 12L12 6L11.8027 12.1233Z" stroke="#C4C4C4"/>
</g>
<defs>
<clipPath id="clip0_3027_290">
<rect width="24" height="24" fill="white"/>
</clipPath>
</defs>
</svg>
