<svg width="24" height="24" viewBox="0 0 24 24" fill="none" xmlns="http://www.w3.org/2000/svg">
<g clip-path="url(#clip0_3050_557)">
<path fill-rule="evenodd" clip-rule="evenodd" d="M10.9997 20.5225V13.8558L1.99968 20.5225L1.99968 3.47772L10.9997 10.1444V3.47772L22.5049 12.0001L10.9997 20.5225ZM10.4945 12.0001L3.99968 7.18913V16.8111L10.4945 12.0001ZM19.4945 12.0001L12.9997 7.18913L12.9997 16.8111L19.4945 12.0001Z" fill="#C4C4C4"/>
<path d="M3 17.625V6.75V6L11.8027 12.1233L12 6L21 12L12 18V12L11.8027 12.1233L3 17.625Z" fill="#C4C4C4"/>
<path d="M11.8027 12.1233L3 17.625V6.75V6L11.8027 12.1233ZM11.8027 12.1233L12 12V18L21 12L12 6L11.8027 12.1233Z" stroke="#C4C4C4"/>
</g>
<defs>
<clipPath id="clip0_3050_557">
<rect width="24" height="24" fill="white"/>
</clipPath>
</defs>
</svg>
