<svg width="24" height="24" viewBox="0 0 24 24" fill="none" xmlns="http://www.w3.org/2000/svg">
<path d="M22.4542 10.9453C23.1442 11.4792 23.1442 12.5209 22.4542 13.0548C20.3161 14.7092 17.9285 16.0132 15.381 16.918L14.915 17.0835C14.0453 17.3923 13.126 16.804 13.0082 15.9055C12.8705 14.8553 12.7891 13.7875 12.764 12.7164C12.6839 12.8421 12.5806 12.957 12.4542 13.0548C10.3161 14.7092 7.92854 16.0132 5.38101 16.918L4.91496 17.0835C4.04532 17.3923 3.12603 16.804 3.0082 15.9055C2.67135 13.337 2.67135 10.663 3.0082 8.09451C3.12603 7.19606 4.04532 6.60768 4.91496 6.91654L5.38101 7.08207C7.92855 7.98686 10.3161 9.29086 12.4542 10.9453C12.5806 11.0431 12.6839 11.1579 12.764 11.2836C12.7891 10.2126 12.8705 9.14471 13.0082 8.09451C13.126 7.19606 14.0453 6.60768 14.915 6.91654L15.381 7.08207C17.9285 7.98686 20.3161 9.29086 22.4542 10.9453Z" fill="#C4C4C4"/>
</svg>
