<svg width="24" height="24" viewBox="0 0 24 24" fill="none" xmlns="http://www.w3.org/2000/svg">
<path fill-rule="evenodd" clip-rule="evenodd" d="M12.0679 4.75009C8.06381 4.75009 4.81787 7.99603 4.81787 12.0001C4.81787 16.0042 8.06381 19.2501 12.0679 19.2501C16.0719 19.2501 19.3179 16.0042 19.3179 12.0001C19.3179 7.99603 16.0719 4.75009 12.0679 4.75009ZM3.31787 12.0001C3.31787 7.1676 7.23538 3.25009 12.0679 3.25009C16.9004 3.25009 20.8179 7.1676 20.8179 12.0001C20.8179 16.8326 16.9004 20.7501 12.0679 20.7501C7.23538 20.7501 3.31787 16.8326 3.31787 12.0001Z" fill="black"/>
<path fill-rule="evenodd" clip-rule="evenodd" d="M10.9177 9.30884C9.98409 10.0769 9.3604 11.1571 9.16204 12.3497L8.7241 14.9825C8.49669 16.3497 10.0864 17.2675 11.1568 16.387L13.2179 14.6913C14.1515 13.9233 14.7751 12.843 14.9735 11.6505L15.4114 9.01765C15.6389 7.65044 14.0491 6.7326 12.9788 7.61316L10.9177 9.30884ZM12.0679 10.5001C11.2394 10.5001 10.5679 11.1717 10.5679 12.0001C10.5679 12.8285 11.2394 13.5001 12.0679 13.5001C12.8963 13.5001 13.5679 12.8285 13.5679 12.0001C13.5679 11.1717 12.8963 10.5001 12.0679 10.5001Z" fill="black"/>
</svg>
