<svg width="24" height="24" viewBox="0 0 24 24" fill="none" xmlns="http://www.w3.org/2000/svg">
<path fill-rule="evenodd" clip-rule="evenodd" d="M11.9929 3.71691C9.65298 1.67202 6.19252 1.25356 3.50521 3.54965C0.598423 6.03328 0.176093 10.2161 2.47471 13.1739C3.51793 14.5163 5.76496 16.6828 7.68698 18.4631C8.66084 19.3651 9.57226 20.1869 10.24 20.7831C10.574 21.0814 10.8473 21.3234 11.0373 21.491C11.1324 21.5748 11.2066 21.6401 11.2572 21.6845L11.3339 21.7517L11.3349 21.7526C11.335 21.7527 11.3353 21.753 11.9933 20.9999L11.3349 21.7526L11.9933 22.3279L12.6512 21.753L11.9933 20.9999C12.6512 21.753 12.6512 21.753 12.6512 21.753L12.7294 21.6845C12.78 21.6401 12.8542 21.5748 12.9492 21.491C13.1392 21.3234 13.4126 21.0814 13.7465 20.7831C14.4143 20.1869 15.3257 19.3651 16.2996 18.4631C18.2216 16.6828 20.4686 14.5163 21.5118 13.1739C23.8016 10.2275 23.4445 6.01238 20.4709 3.54088C17.7537 1.28246 14.3301 1.67124 11.9929 3.71691ZM11.9933 19.6663C11.8675 19.5547 11.7264 19.4291 11.572 19.2913C10.9105 18.7006 10.0085 17.8872 9.04603 16.9958C7.09537 15.189 4.97793 13.1357 4.05392 11.9467C2.41807 9.84171 2.7011 6.86733 4.80441 5.07021C6.818 3.34975 9.52828 3.79238 11.2333 5.78575L11.9933 6.67416L12.7532 5.78575C14.4507 3.80119 17.1256 3.36105 19.1925 5.07898C21.3152 6.84319 21.5773 9.83034 19.9326 11.9467C19.0086 13.1357 16.8912 15.189 14.9405 16.9958C13.978 17.8872 13.0761 18.7006 12.4145 19.2913C12.2602 19.4291 12.119 19.5547 11.9933 19.6663Z" fill="#C4C4C4"/>
</svg>
