<svg width="25" height="24" viewBox="0 0 25 24" fill="none" xmlns="http://www.w3.org/2000/svg">
<path fill-rule="evenodd" clip-rule="evenodd" d="M3.3457 10.0298C3.3457 7.3293 5.71263 5.25 8.49089 5.25C9.92302 5.25 11.1832 5.92214 12.0875 6.79183C12.9918 5.92214 14.252 5.25 15.6842 5.25C18.4624 5.25 20.8293 7.3293 20.8293 10.0298C20.8293 11.8797 20.0412 13.5064 18.9493 14.8815C17.8592 16.2543 16.4334 17.4193 15.0682 18.366C14.5468 18.7276 14.0192 19.0611 13.5364 19.3072C13.0831 19.5383 12.5618 19.75 12.0875 19.75C11.6132 19.75 11.0919 19.5383 10.6386 19.3072C10.1558 19.0611 9.62828 18.7276 9.10684 18.366C7.74164 17.4193 6.31579 16.2543 5.22576 14.8815C4.13385 13.5064 3.3457 11.8797 3.3457 10.0298ZM8.49089 6.75C6.41358 6.75 4.8443 8.2791 4.8443 10.0298C4.8443 11.4333 5.43953 12.74 6.39894 13.9482C7.36023 15.1588 8.65366 16.2269 9.96025 17.133C10.4547 17.4758 10.9204 17.7675 11.3187 17.9706C11.7465 18.1886 11.9943 18.25 12.0875 18.25C12.1808 18.25 12.4286 18.1886 12.8563 17.9706C13.2547 17.7675 13.7204 17.4758 14.2148 17.133C15.5214 16.2269 16.8148 15.1588 17.7761 13.9482C18.7355 12.74 19.3307 11.4333 19.3307 10.0298C19.3307 8.2791 17.7615 6.75 15.6842 6.75C14.4911 6.75 13.3771 7.46342 12.6815 8.36892C12.5397 8.55356 12.3202 8.66176 12.0875 8.66176C11.8548 8.66176 11.6353 8.55356 11.4935 8.36892C10.7979 7.46342 9.68392 6.75 8.49089 6.75Z" fill="#C4C4C4"/>
</svg>
