<svg width="138" height="138" viewBox="0 0 138 138" fill="none" xmlns="http://www.w3.org/2000/svg">
<path fill-rule="evenodd" clip-rule="evenodd" d="M112.125 3.71484V44.4969L74.75 55.9969V112.125C74.75 118.434 71.1604 123.602 66.4476 126.969C61.7238 130.343 55.4926 132.25 48.875 132.25C42.2574 132.25 36.0262 130.343 31.3024 126.969C26.5896 123.602 23 118.434 23 112.125C23 105.817 26.5896 100.648 31.3024 97.2815C36.0262 93.9073 42.2574 92.0001 48.875 92.0001C54.0894 92.0001 59.0638 93.1842 63.25 95.3371V18.7533L112.125 3.71484ZM63.25 112.125C63.25 110.494 62.3344 108.476 59.7634 106.639C57.2034 104.811 53.3721 103.5 48.875 103.5C44.3779 103.5 40.5466 104.811 37.9866 106.639C35.4156 108.476 34.5 110.494 34.5 112.125C34.5 113.756 35.4156 115.774 37.9866 117.611C40.5466 119.439 44.3779 120.75 48.875 120.75C53.3721 120.75 57.2034 119.439 59.7634 117.611C62.3344 115.774 63.25 113.756 63.25 112.125ZM74.75 43.9648L100.625 36.0033V19.2854L74.75 27.2469V43.9648Z" fill="#8E8E8E"/>
</svg>
