<svg width="24" height="24" viewBox="0 0 24 24" fill="none" xmlns="http://www.w3.org/2000/svg">
<path d="M7.45416 8.46201C7.27481 8.41706 7.12574 8.29875 7.04727 8.13908C6.9688 7.97941 6.96904 7.79488 7.04793 7.63539L8.43189 4.83734C8.53502 4.62882 8.75581 4.49581 8.99833 4.49609C9.24084 4.49638 9.46128 4.62991 9.56387 4.83867L10.1744 6.08098C10.1962 6.07283 10.2188 6.06576 10.242 6.05986C13.8647 5.13767 17.5885 7.1801 18.5592 10.6218C19.53 14.0634 17.38 17.601 13.7573 18.5232C10.1345 19.4454 6.41068 17.4029 5.43996 13.9613C5.13128 12.8669 5.13822 11.761 5.40858 10.7328C5.49224 10.4147 5.83153 10.2212 6.16642 10.3007C6.50131 10.3802 6.70497 10.7025 6.62131 11.0206C6.40107 11.8582 6.395 12.7592 6.64737 13.6539C7.43941 16.4621 10.4778 18.1286 13.4337 17.3761C16.3897 16.6237 18.1439 13.7373 17.3518 10.9291C16.5727 8.16685 13.6202 6.50925 10.7105 7.17192L11.3265 8.42537C11.4291 8.63412 11.3953 8.88041 11.2398 9.05722C11.0844 9.23402 10.8353 9.30942 10.6008 9.25065L7.45416 8.46201Z" fill="#C4C4C4"/>
</svg>
