<svg width="24" height="24" viewBox="0 0 24 24" fill="none" xmlns="http://www.w3.org/2000/svg">
<g clip-path="url(#clip0_3027_287)">
<path d="M12 3.75002C7.44361 3.75002 3.74996 7.44367 3.74996 12V12.9167H1.91663V12C1.91663 6.43115 6.43109 1.91669 12 1.91669C15.4114 1.91669 18.4258 3.61072 20.25 6.20136V2.83335H22.0833V9.25002H15.6666V7.41669H18.8609C17.3803 5.20473 14.8593 3.75002 12 3.75002Z" fill="#C4C4C4"/>
<path d="M22.0832 11.0834V12C22.0832 17.5689 17.5688 22.0834 11.9999 22.0834C8.5885 22.0834 5.57414 20.3894 3.74996 17.7988V21.1667H1.91663V14.75H8.33329V16.5834H5.13894C6.61958 18.7953 9.14059 20.25 11.9999 20.25C16.5563 20.25 20.2499 16.5564 20.2499 12V11.0834H22.0832Z" fill="#C4C4C4"/>
</g>
<defs>
<clipPath id="clip0_3027_287">
<rect x="1" y="1" width="22" height="22" rx="2" fill="white"/>
</clipPath>
</defs>
</svg>
