<svg width="24" height="24" viewBox="0 0 24 24" fill="none" xmlns="http://www.w3.org/2000/svg">
<path fill-rule="evenodd" clip-rule="evenodd" d="M12.1387 4.57456C13.1912 3.69746 14.7973 4.33122 14.9672 5.69071C15.4909 9.88045 15.4909 14.1191 14.9672 18.3088C14.7973 19.6683 13.1912 20.3021 12.1387 19.425L7.798 15.8077C7.75307 15.7703 7.69643 15.7498 7.63795 15.7498H4C3.0335 15.7498 2.25 14.9663 2.25 13.9998V9.99977C2.25 9.03327 3.0335 8.24977 4 8.24977H7.63795C7.69643 8.24977 7.75307 8.22926 7.798 8.19182L12.1387 4.57456ZM13.4788 5.87676C13.456 5.69421 13.2403 5.60912 13.099 5.72689L8.75827 9.34416C8.44377 9.60624 8.04734 9.74977 7.63795 9.74977H4C3.86193 9.74977 3.75 9.8617 3.75 9.99977V13.9998C3.75 14.1378 3.86193 14.2498 4 14.2498H7.63795C8.04734 14.2498 8.44377 14.3933 8.75827 14.6554L13.099 18.2726C13.2403 18.3904 13.456 18.3053 13.4788 18.1228C13.9871 14.0566 13.9871 9.94294 13.4788 5.87676Z" fill="#C4C4C4"/>
<path d="M19.9082 5.94554C20.3014 5.81547 20.7257 6.02884 20.8557 6.4221C21.4362 8.17707 21.75 10.0525 21.75 11.9998C21.75 13.947 21.4362 15.8225 20.8557 17.5775C20.7257 17.9707 20.3014 18.1841 19.9082 18.054C19.5149 17.9239 19.3015 17.4997 19.4316 17.1064C19.9624 15.5015 20.25 13.785 20.25 11.9998C20.25 10.2146 19.9624 8.49804 19.4316 6.89311C19.3015 6.49985 19.5149 6.07561 19.9082 5.94554Z" fill="#C4C4C4"/>
<path d="M18.0323 7.94747C17.8894 7.55867 17.4584 7.35929 17.0696 7.50214C16.6808 7.64499 16.4815 8.07598 16.6243 8.46478C17.0288 9.56572 17.25 10.7561 17.25 11.9998C17.25 13.0314 17.0978 14.0261 16.8152 14.9634C16.7995 15.0157 16.7833 15.0677 16.7668 15.1196C16.7222 15.2593 16.6747 15.3977 16.6243 15.5348C16.4815 15.9236 16.6808 16.3546 17.0696 16.4974C17.4584 16.6403 17.8894 16.4409 18.0323 16.0521C18.0901 15.8948 18.1446 15.736 18.1958 15.5756C18.2148 15.5161 18.2333 15.4564 18.2514 15.3964C18.5758 14.3202 18.75 13.1797 18.75 11.9998C18.75 10.577 18.4968 9.21164 18.0323 7.94747Z" fill="#C4C4C4"/>
</svg>
