<svg width="28" height="28" viewBox="0 0 28 28" fill="none" xmlns="http://www.w3.org/2000/svg">
<rect x="21.5632" y="3.58972" width="3.82906" height="9.2583" rx="1.91453" transform="rotate(45 21.5632 3.58972)" fill="#00ADB5"/>
<path fill-rule="evenodd" clip-rule="evenodd" d="M28 14C28 21.732 21.732 28 14 28C10.8499 28 7.94286 26.9596 5.60364 25.2038L7.75251 23.0549C9.52697 24.2815 11.6796 25 14 25C20.0751 25 25 20.0751 25 14C25 7.92487 20.0751 3 14 3C7.92487 3 3 7.92487 3 14C3 16.3718 3.75067 18.5683 5.0274 20.3649L2.88238 22.5099C1.07444 20.1515 0 17.2012 0 14C0 6.26801 6.26801 0 14 0C21.732 0 28 6.26801 28 14Z" fill="#00ADB5"/>
<path fill-rule="evenodd" clip-rule="evenodd" d="M14.0085 23.0171C18.9838 23.0171 23.0171 18.9838 23.0171 14.0085C23.0171 9.03326 18.9838 5 14.0085 5C9.03326 5 5 9.03326 5 14.0085C5 18.9838 9.03326 23.0171 14.0085 23.0171ZM14.0087 20.5532C17.6232 20.5532 20.5534 17.6231 20.5534 14.0086C20.5534 10.394 17.6232 7.46389 14.0087 7.46389C10.3942 7.46389 7.46406 10.394 7.46406 14.0086C7.46406 17.6231 10.3942 20.5532 14.0087 20.5532Z" fill="#00ADB5"/>
</svg>
